<svg width="210" height="143" viewBox="0 0 210 143" fill="none" xmlns="http://www.w3.org/2000/svg">
<path d="M72.5271 21.4888C61.6944 46.1732 49.2337 69.7962 29.5004 88.6621C26.3917 91.6341 13.7 104.448 7.34115 101.183C-3.35718 95.6888 3.49378 67.298 11.3159 61.6338C14.4969 59.3302 18.5816 64.9777 20.3585 66.6022C28.2343 73.803 37.5859 79.739 48.2811 81.5075C79.0187 86.5901 102.804 72.0686 110.585 41.9587C119.401 7.84578 94.4082 -1.56674 64.5776 3.10552C43.8643 6.34977 18.884 27.9933 40.1329 48.3183C56.8417 64.3007 89.4906 63.6339 109.89 56.4666C118.627 53.3968 127.018 47.2497 132.049 39.3751C135.465 34.028 136.133 25.4635 127.677 25.4635C113.5 25.4635 95.8011 49.6959 97.9655 63.2237C100.267 77.6054 118.071 53.5005 119.827 49.5108C124.103 39.7923 119.784 57.3678 123.901 59.547C128.432 61.9461 135.588 57.1691 138.905 54.4792C141.878 52.0694 140.825 59.8072 143.079 62.23C155.394 75.4687 182.564 56.9127 191.173 47.3246C196.09 41.849 189.448 53.0143 188.789 55.1748C183.507 72.4867 180.892 90.5644 176.169 108.039C173.801 116.8 171.2 134.632 162.357 140.135C155.121 144.637 154.468 123.896 154.407 122.05C153.258 87.2064 178.565 72.9998 208.464 66.2047" stroke="#15EBDE" stroke-width="3" stroke-linecap="round"/>
</svg>
