<svg width="392" height="138" viewBox="0 0 392 138" fill="none" xmlns="http://www.w3.org/2000/svg">
<path d="M7.39338 45.0148C18.3653 41.1423 49.9358 37.0437 54.6929 23.4517C55.0161 22.5285 55.746 15.0788 53.898 18.9801C49.5433 28.1733 48.5342 40.0347 46.7434 49.8839C45.2171 58.2787 34.9366 135.264 9.28139 120.833C1.15241 116.261 2.02746 110.467 2.02746 102.251C2.02746 89.3302 8.0209 82.0441 19.9138 78.6014C32.6985 74.9006 44.9367 64.6898 58.3696 64.6898C64.9278 64.6898 69.3121 58.6263 71.7844 53.0637C72.4747 51.5105 75.5452 45.6011 70.9894 46.9028C66.6029 48.1561 80.7571 52.1693 82.3175 52.1693C98.2867 52.1693 69.0875 84.8601 87.1865 82.1787C91.9515 81.4728 96.0405 77.7964 99.3095 74.5273C101.169 72.6679 102.266 71.3656 103.781 69.2608C104.877 67.7392 105.436 63.1653 106.762 64.4911C107.135 64.8634 103.434 76.8375 103.284 78.0052C102.6 83.3464 103.759 87.9993 105.769 92.9105C110.173 103.678 112.191 87.8995 113.718 83.1724C114.854 79.6576 125.71 63.4911 121.469 59.7214C116.544 55.3435 109.692 105.187 125.444 85.0604C127.549 82.3706 140.277 60.4447 144.125 64.2923C146.846 67.0134 146.011 87.8732 148.199 88.0415C154.715 88.5427 157.839 69.9309 165.589 74.8254C176.09 81.458 189.494 84.0747 199.771 75.0242C205.871 69.653 208.618 52.9566 197.585 62.7024C185.857 73.0623 186.008 92.7623 202.355 76.4153C215.515 63.2549 228.425 41.5916 230.576 22.9549C231.475 15.16 227.4 18.7316 224.713 23.0543C220.005 30.6273 218.636 38.6076 218.453 47.3996C218.24 57.6255 216.79 63.8695 213.087 73.2355C212.185 75.5156 208.274 82.5811 208.516 84.7623C208.739 86.7747 212.252 85.3667 212.888 84.961C223.457 78.2187 231.243 64.5401 236.339 53.4611C239.033 47.6056 237.333 47.3448 238.525 52.9643C240.215 60.9286 246.457 64.1102 252.834 68.0683C259.706 72.3337 258.71 73.633 250.748 73.633C245.656 73.633 265.043 64.1338 267.541 61.8081C278.752 51.37 282.844 35.1855 282.844 20.3713C282.844 18.2059 283.357 7.24499 280.26 6.36031C279.458 6.13098 278.533 21.491 278.472 21.9612C276.096 40.1236 272.204 58.0225 268.932 76.0178C267.962 81.3529 272.686 73.9765 273.304 73.1362C277.952 66.8152 282.372 60.3786 287.415 54.3554C291.226 49.8025 290.508 64.35 292.781 68.0683C298.044 76.6813 310.325 72.1582 314.841 65.3854C316.884 62.3198 315.855 53.2548 319.014 55.1504C321.527 56.6584 323.258 61.662 325.97 63.6961C336.485 71.5826 350.361 66.2368 356.575 55.051C357.331 53.6907 358.04 46.2178 357.569 48.9895C355.822 59.2781 354.706 69.7302 353.495 80.092C351.898 93.7507 350.675 107.577 347.235 120.933C346.315 124.504 344.57 133.54 340.975 135.937C334.724 140.104 338.894 105.117 339.782 102.847C346.181 86.4956 361.004 59.0244 378.536 51.6725C389.627 47.0214 391.466 57.5729 389.765 66.081C388.091 74.4495 378.979 73.7644 372.276 73.633C365.541 73.5009 356.755 64.8098 351.21 61.1125C346.017 57.6508 342.695 51.2065 338.292 46.8034C333.619 42.1304 329.41 39.3283 326.665 33.2893C324.539 28.6119 315.952 7.45336 310.568 7.45336C297.278 7.45336 301.135 16.8607 310.667 9.63948C317.536 4.43555 305.806 5.1756 302.916 7.85084C299.784 10.7508 298.052 16.7647 303.314 17.7877C309.203 18.9329 321.252 13.4046 320.405 6.0622C319.434 -2.35856 303.651 4.44865 300.73 7.45336C288.968 19.5519 306.277 24.9787 311.462 14.6079" stroke="#73EB15" stroke-width="3" stroke-linecap="round"/>
</svg>
