<svg width="240" height="180" viewBox="0 0 240 180" fill="none" xmlns="http://www.w3.org/2000/svg">
<path d="M6.993 9.28551C9.75582 8.27248 30.9222 -3.07461 29.8478 4.71455C27.7311 20.0609 24.8005 35.9547 21.2027 51.0204C18.1101 63.9707 13.6418 76.8812 9.17911 89.3768C7.66944 93.6039 5.27541 102.468 2.5214 105.773C0.474711 108.229 5.0781 99.8912 5.60183 98.32C9.39853 86.9299 10.7001 65.0931 19.5135 55.7901C31.5383 43.0973 47.0263 33.9277 59.261 21.4085C61.1228 19.5035 72.2203 8.87496 66.813 5.01265C64.7911 3.56844 46.1322 53.4009 44.1569 60.1623C40.5204 72.6106 39.1885 84.9335 39.1885 97.8231C39.1885 107.801 60.581 90.6285 62.4408 87.9856C63.7946 86.0617 69.9552 66.3609 65.0244 71.2917C63.0123 73.3037 51.3584 92.7613 61.0496 88.9793C62.3793 88.4604 67.7841 83.6491 69.1979 84.8058C74.1148 88.8287 77.3112 92.4465 84.7988 90.0724C93.5101 87.3103 98.0835 78.3081 101.393 70.4967C105.054 61.8567 102.569 65.3948 100.897 72.0866C95.2012 94.8679 92.438 165.285 91.059 141.844C89.6972 118.693 93.8627 92.3025 112.523 76.5582C115.105 74.3794 122.404 67.5408 125.739 71.9872C128.419 75.5614 125.915 80.8745 123.255 83.6134C120.036 86.9269 115.568 87.8824 111.132 87.9856C109.096 88.033 104.774 86.4778 106.561 87.29C113.403 90.4004 120.063 88.35 125.937 83.9115C130.893 80.1672 134.905 75.3618 138.16 70.0992C139.236 68.3591 141.801 62.7966 141.141 64.7333C139.646 69.1198 136.332 74.9102 138.359 79.6386C141.126 86.0968 152.569 81.4451 156.146 78.8437C161.919 74.6446 171.732 51.0505 163.201 68.9068C155.798 84.4004 150.759 100.283 145.513 116.604C141.515 129.044 135.063 141.468 134.086 154.662C133.526 162.216 132.396 155.636 132.396 151.78C132.396 133.059 139.096 111.78 147.302 95.1402C151.829 85.9608 158.552 74.9426 168.567 70.8942C173.836 68.7639 177.59 73.1143 176.715 78.1481C175.772 83.5675 162.945 92.2337 157.636 87.5881C157.254 87.2541 164.644 89.2415 165.784 89.3768C172.52 90.1759 178.246 84.7556 182.18 79.8374C185.759 75.3636 187.613 70.3633 190.13 65.3295C192.738 60.1132 186.632 78.5691 190.627 82.8184C198.598 91.2982 216.284 78.2047 221.431 72.2853C226.954 65.9334 229.416 55.2256 224.809 71.0929C219.027 91.0099 213.859 109.963 211.891 130.714C210.736 142.899 211.223 174.975 194.005 178.014C174.387 181.476 186.346 152.477 191.422 145.321C203.207 128.705 221.302 115.815 237.727 104.083" stroke="#EB1515" stroke-width="3" stroke-linecap="round"/>
</svg>
